<?xml version="1.0" encoding="UTF-8" standalone="no"?>
<svg
   xmlns:dc="http://purl.org/dc/elements/1.1/"
   xmlns:cc="http://creativecommons.org/ns#"
   xmlns:rdf="http://www.w3.org/1999/02/22-rdf-syntax-ns#"
   xmlns:svg="http://www.w3.org/2000/svg"
   xmlns="http://www.w3.org/2000/svg"
   id="svg4337"
   version="1.1"
   viewBox="0 0 211.66667 211.66667"
   height="800"
   width="800">
  <defs
     id="defs4331" />
  <metadata
     id="metadata4334">
    <rdf:RDF>
      <cc:Work
         rdf:about="">
        <dc:format>image/svg+xml</dc:format>
        <dc:type
           rdf:resource="http://purl.org/dc/dcmitype/StillImage" />
        <dc:title></dc:title>
      </cc:Work>
    </rdf:RDF>
  </metadata>
  <g
     transform="translate(0,-85.333313)"
     id="layer1">
    <g
       transform="matrix(0.26458333,0,0,0.26458333,-345.02989,-208.55262)"
       id="g3904">
      <path
         id="path3894"
         d="m 1637.3,1370.7 c 0.6,2.8 3,4.8 5.8,4.8 h 22.4 c 1.7,0 3.3,-0.7 4.4,-2 1.1,-1.3 1.7,-3 1.5,-4.6 l -7.8,-65.9 h 80.9 l -7.8,65.9 c -0.2,1.7 0.3,3.4 1.5,4.6 1.1,1.3 2.7,2 4.4,2 h 22.4 c 2.8,0 5.3,-2 5.8,-4.8 l 13.4,-67.8 h 57.4 L 1815,1409 h -8.8 -204.2 -8.8 l -26.6,-106.1 h 57.4 z" />
      <polygon
         id="polygon3896"
         points="1644.9,1460.3 1629.8,1460.3 1611.2,1420.8 1796.7,1420.8 1778.1,1460.3 1763.1,1460.3 " />
      <path
         id="path3898"
         d="m 1757.2,1472.2 c 1.6,66.2 29.7,94.9 52.4,118.1 14.2,14.5 25.4,26 27.3,43.2 3.5,32.2 -13.7,42.5 -17.7,44.5 h -230.4 c -4.1,-2 -21.2,-12.3 -17.7,-44.5 1.9,-17.3 13.1,-28.7 27.3,-43.2 22.7,-23.2 50.8,-51.8 52.4,-118.1 z" />
      <rect
         id="rect3900"
         height="28.9"
         width="221"
         y="1689.8"
         x="1593.5" />
      <path
         id="path3902"
         d="m 1554.2,1293.3 c -1.1,1.4 -1.5,3.3 -1.1,5.1 l 29.6,117.9 c 0.7,2.6 3,4.5 5.7,4.5 h 9.7 l 22.6,48 c 1,2.1 3.1,3.4 5.4,3.4 h 12.8 c -1.5,61.3 -26.7,87 -49,109.8 -14.6,14.9 -28.3,28.9 -30.6,50.2 -3.9,36 14.1,50.6 22.4,55.3 v 37.1 c 0,3.3 2.7,5.9 5.9,5.9 h 232.9 c 3.3,0 5.9,-2.7 5.9,-5.9 v -37.1 c 8.2,-4.7 26.3,-19.4 22.4,-55.3 -2.3,-21.3 -16.1,-35.4 -30.6,-50.2 -22.3,-22.8 -47.5,-48.5 -49,-109.8 h 12.8 c 2.3,0 4.4,-1.3 5.4,-3.4 l 22.6,-48 h 9.7 c 2.7,0 5.1,-1.8 5.7,-4.5 l 29.6,-117.9 c 0.4,-1.8 0,-3.6 -1.1,-5.1 -1.1,-1.4 -2.8,-2.3 -4.7,-2.3 h -69.8 c -2.8,0 -5.3,2 -5.8,4.8 l -13.4,67.8 h -10.9 l 7.8,-65.9 c 0.2,-1.7 -0.3,-3.4 -1.5,-4.6 -1.1,-1.3 -2.7,-2 -4.4,-2 h -94.3 c -1.7,0 -3.3,0.7 -4.4,2 -1.1,1.3 -1.7,3 -1.5,4.6 l 7.8,65.9 h -10.9 l -13.4,-67.8 c -0.6,-2.8 -3,-4.8 -5.8,-4.8 h -69.8 c -1.8,0.1 -3.6,0.9 -4.7,2.3 z m 39.3,396.5 h 221 v 28.9 h -221 z m 57.2,-217.6 h 106.5 c 1.6,66.2 29.7,94.9 52.4,118.1 14.2,14.5 25.4,26 27.3,43.2 3.5,32.2 -13.7,42.5 -17.7,44.5 h -230.4 c -4.1,-2 -21.2,-12.3 -17.7,-44.5 1.9,-17.3 13.1,-28.7 27.3,-43.2 22.6,-23.2 50.7,-51.9 52.3,-118.1 z m -39.5,-51.4 h 185.5 l -18.6,39.5 h -15.1 -118.2 -15.1 z m -44.7,-117.9 h 57.4 l 13.4,67.8 c 0.6,2.8 3,4.8 5.8,4.8 h 22.4 c 1.7,0 3.3,-0.7 4.4,-2 1.1,-1.3 1.7,-3 1.5,-4.6 l -7.8,-65.9 h 80.9 l -7.8,65.9 c -0.2,1.7 0.3,3.4 1.5,4.6 1.1,1.3 2.7,2 4.4,2 h 22.4 c 2.8,0 5.3,-2 5.8,-4.8 l 13.4,-67.8 h 57.4 L 1815,1409 h -8.8 -204.2 -8.8 z"
         style="fill:#ffffff" />
    </g>
  </g>
</svg>
