<?xml version="1.0" encoding="UTF-8" standalone="no"?>
<!-- Created with Inkscape (http://www.inkscape.org/) -->

<svg
   xmlns:dc="http://purl.org/dc/elements/1.1/"
   xmlns:cc="http://creativecommons.org/ns#"
   xmlns:rdf="http://www.w3.org/1999/02/22-rdf-syntax-ns#"
   xmlns:svg="http://www.w3.org/2000/svg"
   xmlns="http://www.w3.org/2000/svg"
   xmlns:sodipodi="http://sodipodi.sourceforge.net/DTD/sodipodi-0.dtd"
   xmlns:inkscape="http://www.inkscape.org/namespaces/inkscape"
   width="800"
   height="800"
   viewBox="0 0 211.66667 211.66667"
   version="1.1"
   id="svg4337"
   inkscape:version="0.92.4 (5da689c313, 2019-01-14)"
   sodipodi:docname="white_queen.svg">
  <defs
     id="defs4331" />
  <sodipodi:namedview
     id="base"
     pagecolor="#ffffff"
     bordercolor="#666666"
     borderopacity="1.0"
     inkscape:pageopacity="0.0"
     inkscape:pageshadow="2"
     inkscape:zoom="0.49497475"
     inkscape:cx="-28.365902"
     inkscape:cy="262.35359"
     inkscape:document-units="mm"
     inkscape:current-layer="layer1"
     showgrid="false"
     units="px"
     inkscape:window-width="1600"
     inkscape:window-height="838"
     inkscape:window-x="-8"
     inkscape:window-y="-8"
     inkscape:window-maximized="1" />
  <metadata
     id="metadata4334">
    <rdf:RDF>
      <cc:Work
         rdf:about="">
        <dc:format>image/svg+xml</dc:format>
        <dc:type
           rdf:resource="http://purl.org/dc/dcmitype/StillImage" />
        <dc:title></dc:title>
      </cc:Work>
    </rdf:RDF>
  </metadata>
  <g
     inkscape:label="Layer 1"
     inkscape:groupmode="layer"
     id="layer1"
     transform="translate(0,-85.333313)">
    <g
       id="g3786"
       transform="matrix(0.26458333,0,0,0.26458333,-347.33144,42.497273)">
      <path
         style="fill:#ffffff"
         inkscape:connector-curvature="0"
         d="m 1792,530.8 h -158.1 c 5.6,13.4 19,21.1 22.9,23.1 h 112.3 c 3.8,-2 17.2,-9.7 22.9,-23.1 z"
         id="path3770" />
      <path
         style="fill:#ffffff"
         inkscape:connector-curvature="0"
         d="m 1815.4,730.1 c -26,-43.1 -58.1,-96.4 -59.9,-164.4 h -85 c -1.8,67.9 -33.9,121.3 -59.9,164.4 -15.4,25.5 -28.6,47.5 -30.5,65 -3.5,32.2 13.7,42.5 17.7,44.5 h 230.4 c 4.1,-2 21.2,-12.3 17.7,-44.5 -1.9,-17.5 -15.2,-39.5 -30.5,-65 z"
         id="path3772" />
      <path
         style="fill:#ffffff"
         inkscape:connector-curvature="0"
         d="m 1823.8,519 c -1.9,-13.8 -9.5,-28.8 -22.6,-44.5 h -19 -138.5 -19 c -13.2,15.8 -20.8,30.7 -22.6,44.5 h 24 173.8 z"
         id="path3774" />
      <path
         style="fill:#ffffff"
         inkscape:connector-curvature="0"
         d="m 1776.8,462.6 c 1.8,-17.1 9.8,-68.9 41.3,-103.6 -4.7,-1.1 -10.9,-2 -17.5,-2.1 0,0 0,0 0,0 -0.2,0 -0.5,0 -0.7,0 -0.1,0 -0.3,0 -0.4,0 -16.7,0.1 -29,6.3 -36.4,18.3 -1,1.7 -2.8,2.7 -4.8,2.8 -2,0.1 -3.8,-0.8 -5,-2.3 -0.2,-0.2 -18.7,-24.4 -40.4,-27.2 -21.6,2.8 -40.2,26.9 -40.4,27.2 -1.2,1.6 -3.1,2.4 -5,2.3 -2,-0.1 -3.7,-1.1 -4.8,-2.8 -7.4,-12 -19.7,-18.2 -36.4,-18.3 -0.1,0 -0.3,0 -0.4,0 -0.2,0 -0.5,0 -0.7,0 0,0 0,0 0,0 -6.6,0 -12.8,1 -17.5,2.1 31.5,34.7 39.5,86.5 41.3,103.6 z"
         id="path3776" />
      <path
         style="fill:#ffffff"
         inkscape:connector-curvature="0"
         d="m 1668.2,362.6 c 8,-8.6 24.5,-23.8 44.1,-25.9 0.4,0 0.9,0 1.3,0 19.6,2.1 36.1,17.3 44.1,25.9 8.5,-9.9 20.4,-15.8 35.1,-17.2 -3,-12.6 -12.6,-40.9 -40,-53.8 -6.5,15.6 -21.9,26.6 -39.8,26.6 -17.9,0 -33.3,-11 -39.8,-26.6 -27.5,13 -37,41.2 -40,53.8 14.6,1.5 26.5,7.3 35,17.2 z"
         id="path3778" />
      <path
         style="fill:#ffffff"
         inkscape:connector-curvature="0"
         d="m 1712.9,306.3 c 17.3,0 31.3,-14 31.3,-31.3 0,-17.3 -14,-31.3 -31.3,-31.3 -17.3,0 -31.3,14 -31.3,31.3 0,17.3 14.1,31.3 31.3,31.3 z"
         id="path3780" />
      <rect
         style="fill:#ffffff"
         x="1602.4"
         y="851.40002"
         width="221"
         height="28.9"
         id="rect3782" />
      <path
         inkscape:connector-curvature="0"
         d="m 1825.5,724 c -25.2,-41.8 -56.4,-93.6 -58.2,-158.3 h 3.1 c 0.8,0 1.7,-0.2 2.4,-0.5 1.1,-0.5 24.8,-11.3 31.7,-34.4 h 25.7 c 1.6,0 3.1,-0.6 4.2,-1.8 1.1,-1.1 1.7,-2.7 1.7,-4.2 -0.3,-18.9 -9.6,-39.2 -27.7,-60.2 -1.1,-1.3 -2.8,-2.1 -4.5,-2.1 h -15.2 c 2.2,-18.2 11.2,-71.8 44.6,-102.2 1.5,-1.4 2.2,-3.5 1.8,-5.5 -0.4,-2 -1.8,-3.7 -3.7,-4.4 -0.5,-0.2 -12,-4.5 -26.6,-5.3 -2.7,-13.5 -13.2,-49.7 -49.1,-65.3 0.2,-1.6 0.3,-3.2 0.3,-4.9 0,-23.8 -19.4,-43.2 -43.2,-43.2 -23.8,0 -43.2,19.4 -43.2,43.2 0,1.6 0.1,3.3 0.3,4.9 -35.9,15.6 -46.3,51.8 -49.1,65.3 -14.6,0.8 -26.1,5.1 -26.6,5.3 -1.9,0.7 -3.3,2.4 -3.7,4.4 -0.4,2 0.3,4.1 1.8,5.5 33.4,30.4 42.5,84 44.6,102.2 h -15.2 c -1.7,0 -3.4,0.7 -4.5,2.1 -18.1,21 -27.5,41.3 -27.7,60.2 0,1.6 0.6,3.1 1.7,4.2 1.1,1.1 2.6,1.8 4.2,1.8 h 25.7 c 6.8,23.1 30.6,33.9 31.7,34.4 0.8,0.3 1.6,0.5 2.4,0.5 h 3.1 c -1.8,64.7 -33,116.5 -58.2,158.3 -16.1,26.7 -30,49.7 -32.1,69.8 -3.9,36 14.1,50.6 22.4,55.3 v 37.1 c 0,3.3 2.7,5.9 5.9,5.9 h 232.9 c 3.3,0 5.9,-2.7 5.9,-5.9 v -37.1 c 8.2,-4.7 26.3,-19.4 22.4,-55.3 -2,-20.1 -15.9,-43.1 -32,-69.8 z M 1712.9,243.7 c 17.3,0 31.3,14 31.3,31.3 0,17.3 -14,31.3 -31.3,31.3 -17.3,0 -31.3,-14 -31.3,-31.3 0,-17.2 14.1,-31.3 31.3,-31.3 z m -39.8,47.9 c 6.5,15.6 21.9,26.6 39.8,26.6 17.9,0 33.3,-11 39.8,-26.6 27.4,13 37,41.2 40,53.8 -14.7,1.4 -26.6,7.3 -35.1,17.2 -8,-8.6 -24.5,-23.8 -44.1,-25.9 -0.4,0 -0.9,0 -1.3,0 -19.6,2.1 -36.1,17.3 -44.1,25.9 -8.5,-9.9 -20.4,-15.8 -35.1,-17.2 3.1,-12.6 12.6,-40.8 40.1,-53.8 z m -65.3,67.4 c 4.7,-1.1 10.9,-2 17.5,-2.1 0,0 0,0 0,0 0.2,0 0.5,0 0.7,0 0.1,0 0.3,0 0.4,0 16.7,0.1 29,6.3 36.4,18.3 1,1.7 2.8,2.7 4.8,2.8 1.9,0.1 3.8,-0.8 5,-2.3 0.2,-0.2 18.7,-24.4 40.4,-27.2 21.6,2.8 40.2,26.9 40.4,27.2 1.2,1.6 3,2.5 5,2.3 2,-0.1 3.7,-1.1 4.8,-2.8 7.4,-12 19.7,-18.2 36.4,-18.3 0.1,0 0.3,0 0.4,0 0.2,0 0.5,0 0.7,0 0,0 0,0 0,0 6.6,0 12.8,1 17.5,2.1 -31.5,34.7 -39.5,86.5 -41.3,103.6 h -127.7 c -1.9,-17.1 -9.9,-68.9 -41.4,-103.6 z m -5.8,160 c 1.9,-13.8 9.5,-28.8 22.6,-44.5 h 19 138.5 19 c 13.2,15.8 20.8,30.7 22.6,44.5 h -24 -173.7 z m 54.8,34.9 c -3.8,-2 -17.2,-9.6 -22.9,-23.1 H 1792 c -5.6,13.3 -19,21.1 -22.9,23.1 z m 166.6,326.5 h -221 v -28.9 h 221 z m 4.7,-40.8 h -230.4 c -4,-1.9 -21.2,-12.3 -17.7,-44.5 1.9,-17.5 15.2,-39.5 30.5,-65 26,-43.1 58.1,-96.4 59.9,-164.4 h 85 c 1.8,67.9 33.9,121.3 59.9,164.4 15.4,25.5 28.6,47.5 30.5,65 3.6,32.1 -13.5,42.5 -17.7,44.5 z"
         id="path3784" />
    </g>
  </g>
</svg>
