<?xml version="1.0" encoding="UTF-8" standalone="no"?>
<svg
   xmlns:dc="http://purl.org/dc/elements/1.1/"
   xmlns:cc="http://creativecommons.org/ns#"
   xmlns:rdf="http://www.w3.org/1999/02/22-rdf-syntax-ns#"
   xmlns:svg="http://www.w3.org/2000/svg"
   xmlns="http://www.w3.org/2000/svg"
   id="svg4337"
   version="1.1"
   viewBox="0 0 211.66667 211.66667"
   height="800"
   width="800">
  <defs
     id="defs4331" />
  <metadata
     id="metadata4334">
    <rdf:RDF>
      <cc:Work
         rdf:about="">
        <dc:format>image/svg+xml</dc:format>
        <dc:type
           rdf:resource="http://purl.org/dc/dcmitype/StillImage" />
        <dc:title></dc:title>
      </cc:Work>
    </rdf:RDF>
  </metadata>
  <g
     transform="translate(0,-85.333313)"
     id="layer1">
    <g
       transform="matrix(0.26458333,0,0,0.26458333,-48.947915,13.274044)"
       id="g3814">
      <path
         id="path3804"
         d="m 651.7,532.3 c -0.6,2.8 -3,4.8 -5.8,4.8 h -22.4 c -1.7,0 -3.3,-0.7 -4.4,-2 -1.1,-1.3 -1.7,-3 -1.5,-4.6 l 7.8,-65.9 h -80.9 l 7.8,65.9 c 0.2,1.7 -0.3,3.4 -1.5,4.6 -1.1,1.3 -2.7,2 -4.4,2 H 524 c -2.8,0 -5.3,-2 -5.8,-4.8 L 504.8,464.5 H 447.4 L 474,570.6 h 8.8 204.2 8.8 L 722.4,464.5 H 665 Z"
         style="fill:#ffffff" />
      <polygon
         id="polygon3806"
         points="644.1,621.9 659.2,621.9 677.8,582.4 492.2,582.4 510.8,621.9 525.9,621.9 "
         style="fill:#ffffff" />
      <path
         id="path3808"
         d="m 531.7,633.8 c -1.6,66.2 -29.7,94.9 -52.4,118.1 -14.2,14.5 -25.4,26 -27.3,43.2 -3.5,32.2 13.7,42.5 17.7,44.5 h 230.4 c 4.1,-2 21.2,-12.3 17.7,-44.5 -1.9,-17.3 -13.1,-28.7 -27.3,-43.2 -22.7,-23.2 -50.8,-51.8 -52.4,-118.1 z"
         style="fill:#ffffff" />
      <rect
         id="rect3810"
         height="28.9"
         width="221"
         y="851.40002"
         x="474.5"
         style="fill:#ffffff" />
      <path
         id="path3812"
         d="m 730.1,452.7 h -69.8 c -2.8,0 -5.3,2 -5.8,4.8 L 641,525.2 h -10.9 l 7.8,-65.9 c 0.2,-1.7 -0.3,-3.4 -1.5,-4.6 -1.1,-1.3 -2.7,-2 -4.4,-2 h -94.3 c -1.7,0 -3.3,0.7 -4.4,2 -1.1,1.3 -1.7,3 -1.5,4.6 l 7.8,65.9 H 529 l -13.4,-67.8 c -0.6,-2.8 -3,-4.8 -5.8,-4.8 H 440 c -1.8,0 -3.5,0.8 -4.7,2.3 -1.1,1.4 -1.5,3.3 -1.1,5.1 l 29.6,117.9 c 0.7,2.6 3,4.5 5.7,4.5 h 9.7 l 22.6,48 c 1,2.1 3.1,3.4 5.4,3.4 H 520 c -1.5,61.3 -26.7,87 -49,109.8 -14.6,14.9 -28.3,28.9 -30.6,50.2 -3.9,36 14.1,50.6 22.4,55.3 v 37.1 c 0,3.3 2.7,5.9 5.9,5.9 h 232.9 c 3.3,0 5.9,-2.7 5.9,-5.9 v -37.1 c 8.2,-4.7 26.3,-19.4 22.4,-55.3 -2.3,-21.3 -16.1,-35.4 -30.6,-50.2 -22.3,-22.8 -47.5,-48.5 -49,-109.8 h 12.8 c 2.3,0 4.4,-1.3 5.4,-3.4 l 22.6,-48 h 9.7 c 2.7,0 5.1,-1.8 5.7,-4.5 L 735.8,460 c 0.4,-1.8 0,-3.6 -1.1,-5.1 -1.1,-1.4 -2.8,-2.2 -4.6,-2.2 z m -34.6,427.7 h -221 v -28.9 h 221 z m -4.9,-128.5 c 14.2,14.5 25.4,26 27.3,43.2 3.5,32.1 -13.6,42.5 -17.7,44.5 H 469.8 c -4,-1.9 -21.2,-12.3 -17.7,-44.5 1.9,-17.3 13.1,-28.7 27.3,-43.2 22.7,-23.2 50.8,-51.8 52.4,-118.1 h 106.5 c 1.5,66.2 29.6,94.9 52.3,118.1 z m -31.4,-130 H 644.1 525.9 510.8 l -18.6,-39.5 h 185.5 z m 36.7,-51.3 h -8.8 -204.2 -8.8 L 447.5,464.5 h 57.4 l 13.4,67.8 c 0.6,2.8 3,4.8 5.8,4.8 h 22.4 c 1.7,0 3.3,-0.7 4.4,-2 1.1,-1.3 1.7,-3 1.5,-4.6 l -7.8,-65.9 h 80.9 l -7.8,65.9 c -0.2,1.7 0.3,3.4 1.5,4.6 1.1,1.3 2.7,2 4.4,2 H 646 c 2.8,0 5.3,-2 5.8,-4.8 l 13.4,-67.8 h 57.4 z" />
    </g>
  </g>
</svg>
