<?xml version="1.0" encoding="UTF-8" standalone="no"?>
<!-- Created with Inkscape (http://www.inkscape.org/) -->

<svg
   xmlns:dc="http://purl.org/dc/elements/1.1/"
   xmlns:cc="http://creativecommons.org/ns#"
   xmlns:rdf="http://www.w3.org/1999/02/22-rdf-syntax-ns#"
   xmlns:svg="http://www.w3.org/2000/svg"
   xmlns="http://www.w3.org/2000/svg"
   xmlns:sodipodi="http://sodipodi.sourceforge.net/DTD/sodipodi-0.dtd"
   xmlns:inkscape="http://www.inkscape.org/namespaces/inkscape"
   width="800"
   height="800"
   viewBox="0 0 211.66667 211.66667"
   version="1.1"
   id="svg4337"
   inkscape:version="0.92.4 (5da689c313, 2019-01-14)"
   sodipodi:docname="black_bishop.svg">
  <defs
     id="defs4331" />
  <sodipodi:namedview
     id="base"
     pagecolor="#ffffff"
     bordercolor="#666666"
     borderopacity="1.0"
     inkscape:pageopacity="0.0"
     inkscape:pageshadow="2"
     inkscape:zoom="0.49497475"
     inkscape:cx="-114.22887"
     inkscape:cy="262.35359"
     inkscape:document-units="mm"
     inkscape:current-layer="layer1"
     showgrid="false"
     units="px"
     inkscape:window-width="1600"
     inkscape:window-height="838"
     inkscape:window-x="-8"
     inkscape:window-y="-8"
     inkscape:window-maximized="1" />
  <metadata
     id="metadata4334">
    <rdf:RDF>
      <cc:Work
         rdf:about="">
        <dc:format>image/svg+xml</dc:format>
        <dc:type
           rdf:resource="http://purl.org/dc/dcmitype/StillImage" />
        <dc:title></dc:title>
      </cc:Work>
    </rdf:RDF>
  </metadata>
  <g
     inkscape:label="Layer 1"
     inkscape:groupmode="layer"
     id="layer1"
     transform="translate(0,-85.333313)">
    <g
       id="g3892"
       transform="matrix(0.26458333,0,0,0.26458333,-141.14165,-179.32939)">
      <path
         inkscape:connector-curvature="0"
         d="m 903.2,1144.2 c -5.3,-6.8 -8.2,-15 -8.2,-23.6 0,-21.2 17.2,-38.4 38.4,-38.4 21.2,0 38.4,17.2 38.4,38.4 0,8.6 -2.9,16.9 -8.2,23.6 z"
         id="path3878" />
      <rect
         x="822.90002"
         y="1689.8"
         width="221"
         height="28.9"
         id="rect3880" />
      <path
         inkscape:connector-curvature="0"
         d="m 885,1392.3 h -7.8 c -4.4,-2.3 -21,-11.9 -24.7,-28.6 -0.1,-0.5 -0.2,-1.1 -0.3,-1.6 h 162.2 c -0.1,0.6 -0.2,1.1 -0.3,1.7 -3.8,16.8 -20.3,26.3 -24.7,28.5 h -7.8 z"
         id="path3882" />
      <path
         inkscape:connector-curvature="0"
         d="M 999.7,1308.2 H 867.1 c -4.8,-3 -23.9,-17.7 -23.9,-61.3 0,-14.5 5.2,-29.7 15.4,-45.1 l 64.1,44.6 c 2.3,1.6 5.5,1.4 7.6,-0.7 2,-2 2.3,-5.2 0.7,-7.6 l -46.1,-66.7 c 8.5,-7.9 15.8,-13.3 18.8,-15.4 h 59.6 c 8.8,6.3 60.4,44.9 60.4,90.8 -0.1,43.7 -19.3,58.4 -24,61.4 z"
         id="path3884" />
      <path
         inkscape:connector-curvature="0"
         d="m 857.7,1335.6 c 0,0 0,0 0,0 1.3,-2.5 2.8,-5 4.5,-7.5 0.1,-0.2 0.3,-0.4 0.4,-0.6 0.7,-1 1.4,-2 2.2,-3 0.2,-0.3 0.4,-0.6 0.6,-0.9 0.9,-1.2 1.9,-2.4 2.9,-3.6 h 130.3 c 1,1.2 2,2.4 2.9,3.6 0.2,0.3 0.4,0.6 0.7,0.9 0.7,1 1.4,2 2.1,2.9 0.2,0.2 0.3,0.5 0.5,0.7 1.7,2.5 3.2,5 4.5,7.4 0,0 0,0.1 0.1,0.1 2.6,5 4.4,9.9 5.2,14.6 H 852.4 c 0.9,-4.7 2.6,-9.5 5.3,-14.6 z"
         id="path3886" />
      <path
         inkscape:connector-curvature="0"
         d="m 831,1568.5 c 26,-43.1 58.1,-96.4 59.9,-164.4 h 85 c 1.8,67.9 33.9,121.3 59.9,164.4 15.4,25.5 28.6,47.5 30.5,65 3.5,32.2 -13.7,42.5 -17.7,44.5 H 818.2 c -4.1,-2 -21.2,-12.3 -17.7,-44.5 1.9,-17.5 15.1,-39.5 30.5,-65 z"
         id="path3888" />
      <path
         style="fill:#ffffff"
         inkscape:connector-curvature="0"
         d="m 788.7,1632.2 c -3.9,36 14.1,50.6 22.4,55.3 v 37.1 c 0,3.3 2.7,5.9 5.9,5.9 h 232.9 c 3.3,0 5.9,-2.7 5.9,-5.9 v -37.1 c 8.2,-4.7 26.3,-19.4 22.4,-55.3 -2.2,-20.1 -16.1,-43.2 -32.1,-69.8 -25.2,-41.8 -56.4,-93.6 -58.2,-158.3 h 3.1 c 0.8,0 1.7,-0.2 2.4,-0.5 1.1,-0.5 26.8,-12.2 32.5,-37.3 2.5,-11.2 0.5,-23.1 -5.8,-35.5 0,0 0,-0.1 0,-0.1 -1.3,-2.6 -2.8,-5.2 -4.6,-7.8 -0.2,-0.4 -0.5,-0.7 -0.7,-1.1 -0.4,-0.6 -0.8,-1.2 -1.2,-1.8 -0.4,-0.6 -0.8,-1.1 -1.2,-1.7 -0.4,-0.5 -0.7,-1 -1.1,-1.5 -0.4,-0.5 -0.8,-1.1 -1.2,-1.6 9.2,-7.5 25.5,-26.8 25.5,-68.5 0,-46.5 -43.7,-84.1 -61.1,-97.3 6,-8.5 9.3,-18.5 9.3,-29 0,-27.7 -22.5,-50.3 -50.3,-50.3 -27.7,0 -50.3,22.5 -50.3,50.3 0,10.5 3.3,20.6 9.3,29 -4.7,3.6 -11.8,9.3 -19.5,16.8 -2.1,2 -2.4,5.2 -0.7,7.6 l 30.4,44 -42.1,-29.3 c -2.6,-1.8 -6.3,-1.2 -8.2,1.4 -13.9,19.2 -20.9,38.3 -20.9,56.9 0,41.7 16.3,60.9 25.5,68.5 -0.4,0.5 -0.8,1.1 -1.2,1.6 -0.4,0.5 -0.8,1 -1.1,1.5 -0.4,0.6 -0.8,1.1 -1.2,1.7 -0.4,0.6 -0.8,1.2 -1.2,1.8 -0.2,0.4 -0.5,0.7 -0.7,1.1 -1.7,2.6 -3.2,5.2 -4.6,7.8 0,0 0,0 0,0.1 -6.3,12.4 -8.3,24.3 -5.8,35.5 5.6,25.1 31.4,36.8 32.5,37.3 0.8,0.3 1.6,0.5 2.4,0.5 h 3.1 c -1.8,64.7 -33,116.5 -58.2,158.3 -16.2,26.6 -30.1,49.6 -32.3,69.7 z m 183.1,-511.7 c 0,8.6 -2.9,16.9 -8.2,23.6 h -60.5 c -5.3,-6.8 -8.2,-15 -8.2,-23.6 0,-21.2 17.2,-38.4 38.4,-38.4 21.3,0 38.5,17.3 38.5,38.4 z m 27.9,187.7 H 867.1 c -4.8,-3 -23.9,-17.7 -23.9,-61.3 0,-14.5 5.2,-29.7 15.4,-45.1 l 64.1,44.6 c 2.3,1.6 5.5,1.4 7.6,-0.7 2,-2 2.3,-5.2 0.7,-7.6 l -46.1,-66.7 c 8.5,-7.9 15.8,-13.3 18.8,-15.4 h 59.6 c 8.8,6.3 60.4,44.9 60.4,90.8 -0.1,43.7 -19.3,58.4 -24,61.4 z m 14.7,42 h -162 c 0.8,-4.7 2.6,-9.6 5.2,-14.6 0,0 0,0 0,-0.1 1.3,-2.4 2.8,-4.9 4.5,-7.4 0.1,-0.2 0.3,-0.4 0.4,-0.6 0.7,-1 1.4,-2 2.2,-3 0.2,-0.3 0.4,-0.6 0.6,-0.9 0.9,-1.2 1.9,-2.4 2.9,-3.6 h 130.3 c 1,1.2 2,2.4 2.9,3.6 0.2,0.3 0.4,0.6 0.7,0.9 0.7,1 1.4,2 2.1,2.9 0.2,0.2 0.3,0.5 0.5,0.7 1.7,2.5 3.2,5 4.5,7.4 0,0 0,0.1 0.1,0.1 2.5,5.1 4.2,9.9 5.1,14.6 z m -32.6,42.1 H 885 877.2 c -4.4,-2.3 -21,-11.9 -24.7,-28.6 -0.1,-0.5 -0.2,-1.1 -0.3,-1.6 h 162.2 c -0.1,0.6 -0.2,1.1 -0.3,1.7 -3.8,16.8 -20.3,26.3 -24.7,28.5 z m -158.9,297.5 h 221 v 28.9 h -221 z m -22.4,-56.3 c 1.9,-17.5 15.2,-39.5 30.5,-65 26,-43.1 58.1,-96.4 59.9,-164.4 h 85 c 1.8,67.9 33.9,121.3 59.9,164.4 15.4,25.5 28.6,47.5 30.5,65 3.5,32.2 -13.7,42.5 -17.7,44.5 H 818.2 c -4.1,-2 -21.2,-12.4 -17.7,-44.5 z"
         id="path3890" />
    </g>
  </g>
</svg>
