<?xml version="1.0" encoding="UTF-8" standalone="no"?>
<!-- Created with Inkscape (http://www.inkscape.org/) -->

<svg
   xmlns:dc="http://purl.org/dc/elements/1.1/"
   xmlns:cc="http://creativecommons.org/ns#"
   xmlns:rdf="http://www.w3.org/1999/02/22-rdf-syntax-ns#"
   xmlns:svg="http://www.w3.org/2000/svg"
   xmlns="http://www.w3.org/2000/svg"
   xmlns:sodipodi="http://sodipodi.sourceforge.net/DTD/sodipodi-0.dtd"
   xmlns:inkscape="http://www.inkscape.org/namespaces/inkscape"
   width="800"
   height="800"
   viewBox="0 0 211.66667 211.66667"
   version="1.1"
   id="svg4337"
   inkscape:version="0.92.4 (5da689c313, 2019-01-14)"
   sodipodi:docname="white_bishop.svg">
  <defs
     id="defs4331" />
  <sodipodi:namedview
     id="base"
     pagecolor="#ffffff"
     bordercolor="#666666"
     borderopacity="1.0"
     inkscape:pageopacity="0.0"
     inkscape:pageshadow="2"
     inkscape:zoom="0.49497475"
     inkscape:cx="-28.365902"
     inkscape:cy="262.35359"
     inkscape:document-units="mm"
     inkscape:current-layer="layer1"
     showgrid="false"
     units="px"
     inkscape:window-width="1600"
     inkscape:window-height="838"
     inkscape:window-x="-8"
     inkscape:window-y="-8"
     inkscape:window-maximized="1" />
  <metadata
     id="metadata4334">
    <rdf:RDF>
      <cc:Work
         rdf:about="">
        <dc:format>image/svg+xml</dc:format>
        <dc:type
           rdf:resource="http://purl.org/dc/dcmitype/StillImage" />
        <dc:title></dc:title>
      </cc:Work>
    </rdf:RDF>
  </metadata>
  <g
     inkscape:label="Layer 1"
     inkscape:groupmode="layer"
     id="layer1"
     transform="translate(0,-85.333313)">
    <g
       id="g3802"
       transform="matrix(0.26458333,0,0,0.26458333,-252.8355,42.523732)">
      <path
         style="fill:#ffffff"
         inkscape:connector-curvature="0"
         d="m 1385.8,305.8 c 5.3,-6.8 8.2,-15 8.2,-23.6 0,-21.2 -17.2,-38.4 -38.4,-38.4 -21.2,0 -38.4,17.2 -38.4,38.4 0,8.6 2.9,16.9 8.2,23.6 z"
         id="path3788" />
      <rect
         style="fill:#ffffff"
         x="1245"
         y="851.40002"
         width="221"
         height="28.9"
         id="rect3790" />
      <path
         style="fill:#ffffff"
         inkscape:connector-curvature="0"
         d="m 1403.9,553.9 h 7.8 c 4.4,-2.3 21,-11.9 24.7,-28.6 0.1,-0.5 0.2,-1.1 0.3,-1.6 h -162.2 c 0.1,0.6 0.2,1.1 0.3,1.7 3.8,16.8 20.3,26.3 24.7,28.5 h 7.8 z"
         id="path3792" />
      <path
         style="fill:#ffffff"
         inkscape:connector-curvature="0"
         d="m 1289.2,469.8 h 132.6 c 4.8,-3 23.9,-17.7 23.9,-61.3 0,-14.5 -5.2,-29.7 -15.4,-45.1 l -64.1,44.6 c -2.3,1.6 -5.5,1.4 -7.6,-0.7 -2,-2 -2.3,-5.2 -0.7,-7.6 L 1404,333 c -8.5,-7.9 -15.8,-13.3 -18.8,-15.4 h -59.6 c -8.8,6.3 -60.4,44.9 -60.4,90.8 0.2,43.7 19.4,58.4 24,61.4 z"
         id="path3794" />
      <path
         style="fill:#ffffff"
         inkscape:connector-curvature="0"
         d="m 1431.3,497.2 c 0,0 0,0 0,0 -1.3,-2.5 -2.8,-5 -4.5,-7.5 -0.1,-0.2 -0.3,-0.4 -0.4,-0.6 -0.7,-1 -1.4,-2 -2.2,-3 -0.2,-0.3 -0.4,-0.6 -0.6,-0.9 -0.9,-1.2 -1.9,-2.4 -2.9,-3.6 h -130.3 c -1,1.2 -2,2.4 -2.9,3.6 -0.2,0.3 -0.4,0.6 -0.7,0.9 -0.7,1 -1.4,2 -2.1,2.9 -0.2,0.2 -0.3,0.5 -0.5,0.7 -1.7,2.5 -3.2,5 -4.5,7.4 0,0 0,0.1 -0.1,0.1 -2.6,5 -4.4,9.9 -5.2,14.6 h 161.9 c -0.6,-4.7 -2.4,-9.5 -5,-14.6 z"
         id="path3796" />
      <path
         style="fill:#ffffff"
         inkscape:connector-curvature="0"
         d="m 1458,730.1 c -26,-43.1 -58.1,-96.4 -59.9,-164.4 h -85 c -1.8,67.9 -33.9,121.3 -59.9,164.4 -15.4,25.5 -28.6,47.5 -30.5,65 -3.5,32.2 13.7,42.5 17.7,44.5 h 230.4 c 4.1,-2 21.2,-12.3 17.7,-44.5 -1.9,-17.5 -15.2,-39.5 -30.5,-65 z"
         id="path3798" />
      <path
         inkscape:connector-curvature="0"
         d="m 1468.1,724 c -25.2,-41.8 -56.4,-93.6 -58.2,-158.3 h 3.1 c 0.8,0 1.7,-0.2 2.4,-0.5 1.1,-0.5 26.8,-12.2 32.5,-37.3 2.5,-11.2 0.5,-23.1 -5.8,-35.5 0,0 0,0 0,-0.1 -1.3,-2.6 -2.9,-5.2 -4.6,-7.8 -0.2,-0.4 -0.4,-0.7 -0.7,-1.1 -0.4,-0.6 -0.8,-1.2 -1.2,-1.8 -0.4,-0.6 -0.8,-1.1 -1.2,-1.7 -0.4,-0.5 -0.7,-1 -1.1,-1.5 -0.4,-0.5 -0.8,-1.1 -1.2,-1.6 9.2,-7.5 25.5,-26.8 25.5,-68.5 0,-18.5 -7,-37.7 -20.9,-56.9 -1.9,-2.6 -5.5,-3.2 -8.2,-1.4 l -42.1,29.3 30.4,-44 c 1.6,-2.4 1.3,-5.6 -0.7,-7.6 -7.7,-7.4 -14.7,-13.2 -19.5,-16.8 6,-8.5 9.3,-18.6 9.3,-29 0,-27.7 -22.5,-50.3 -50.3,-50.3 -27.7,0 -50.3,22.5 -50.3,50.3 0,10.5 3.3,20.5 9.3,29 -17.4,13.1 -61.1,50.8 -61.1,97.3 0,41.7 16.3,60.9 25.5,68.5 -0.4,0.5 -0.8,1.1 -1.2,1.6 -0.4,0.5 -0.8,1 -1.1,1.5 -0.4,0.6 -0.8,1.1 -1.2,1.7 -0.4,0.6 -0.8,1.2 -1.2,1.8 -0.2,0.4 -0.5,0.7 -0.7,1.1 -1.7,2.6 -3.2,5.2 -4.6,7.8 0,0 0,0.1 0,0.1 -6.3,12.4 -8.3,24.2 -5.8,35.5 5.6,25.1 31.4,36.8 32.5,37.3 0.8,0.3 1.6,0.5 2.4,0.5 h 3.1 c -1.8,64.7 -33,116.5 -58.2,158.3 -16.1,26.7 -30,49.7 -32.1,69.8 -3.9,36 14.1,50.6 22.4,55.3 v 37.1 c 0,3.3 2.7,5.9 5.9,5.9 H 1472 c 3.3,0 5.9,-2.7 5.9,-5.9 V 849 c 8.2,-4.7 26.3,-19.4 22.4,-55.3 -2.2,-20 -16.1,-43 -32.2,-69.7 z M 1355.6,243.7 c 21.2,0 38.4,17.2 38.4,38.4 0,8.6 -2.9,16.9 -8.2,23.6 h -60.5 c -5.3,-6.8 -8.2,-15 -8.2,-23.6 0,-21.1 17.3,-38.4 38.5,-38.4 z m -90.2,164.7 c 0,-45.9 51.6,-84.5 60.4,-90.8 h 59.6 c 3,2.1 10.2,7.5 18.8,15.4 l -46.1,66.7 c -1.6,2.4 -1.3,5.5 0.7,7.6 2,2 5.2,2.3 7.6,0.7 l 64.1,-44.6 c 10.2,15.5 15.4,30.6 15.4,45.1 0,43.6 -19.1,58.3 -23.9,61.3 h -132.6 c -4.8,-3 -24,-17.7 -24,-61.4 z m 14.4,88.9 c 0,0 0,-0.1 0.1,-0.1 1.3,-2.4 2.8,-4.9 4.5,-7.4 0.2,-0.2 0.3,-0.5 0.5,-0.7 0.7,-1 1.4,-2 2.1,-2.9 0.2,-0.3 0.4,-0.6 0.7,-0.9 0.9,-1.2 1.9,-2.4 2.9,-3.6 h 130.3 c 1,1.2 2,2.4 2.9,3.6 0.2,0.3 0.4,0.6 0.6,0.9 0.7,1 1.5,2 2.2,3 0.1,0.2 0.3,0.4 0.4,0.6 1.7,2.5 3.2,5 4.5,7.4 0,0 0,0 0,0.1 2.6,5 4.4,9.9 5.2,14.6 h -161.9 c 0.6,-4.8 2.4,-9.6 5,-14.6 z m 19.6,56.6 c -4.3,-2.2 -20.9,-11.7 -24.7,-28.5 -0.1,-0.6 -0.2,-1.1 -0.3,-1.7 h 162.2 c -0.1,0.5 -0.2,1.1 -0.3,1.6 -3.7,16.8 -20.3,26.4 -24.7,28.6 h -7.8 -96.7 z m 166.7,326.5 h -221 v -28.9 h 221 z m 4.7,-40.8 h -230.4 c -4,-1.9 -21.2,-12.3 -17.7,-44.5 1.9,-17.5 15.2,-39.5 30.5,-65 26,-43.1 58.1,-96.4 59.9,-164.4 h 85 c 1.8,67.9 33.9,121.3 59.9,164.4 15.4,25.5 28.6,47.5 30.5,65 3.5,32.1 -13.6,42.5 -17.7,44.5 z"
         id="path3800" />
    </g>
  </g>
</svg>
