<?xml version="1.0" encoding="UTF-8" standalone="no"?>
<!-- Created with Inkscape (http://www.inkscape.org/) -->

<svg
   xmlns:dc="http://purl.org/dc/elements/1.1/"
   xmlns:cc="http://creativecommons.org/ns#"
   xmlns:rdf="http://www.w3.org/1999/02/22-rdf-syntax-ns#"
   xmlns:svg="http://www.w3.org/2000/svg"
   xmlns="http://www.w3.org/2000/svg"
   xmlns:sodipodi="http://sodipodi.sourceforge.net/DTD/sodipodi-0.dtd"
   xmlns:inkscape="http://www.inkscape.org/namespaces/inkscape"
   width="800"
   height="800"
   viewBox="0 0 211.66667 211.66667"
   version="1.1"
   id="svg4337"
   inkscape:version="0.92.4 (5da689c313, 2019-01-14)"
   sodipodi:docname="white_king.svg">
  <defs
     id="defs4331" />
  <sodipodi:namedview
     id="base"
     pagecolor="#ffffff"
     bordercolor="#666666"
     borderopacity="1.0"
     inkscape:pageopacity="0.0"
     inkscape:pageshadow="2"
     inkscape:zoom="0.49497475"
     inkscape:cx="-114.22887"
     inkscape:cy="262.35359"
     inkscape:document-units="mm"
     inkscape:current-layer="layer1"
     showgrid="false"
     units="px"
     inkscape:window-width="1600"
     inkscape:window-height="838"
     inkscape:window-x="-8"
     inkscape:window-y="-8"
     inkscape:window-maximized="1" />
  <metadata
     id="metadata4334">
    <rdf:RDF>
      <cc:Work
         rdf:about="">
        <dc:format>image/svg+xml</dc:format>
        <dc:type
           rdf:resource="http://purl.org/dc/dcmitype/StillImage" />
        <dc:title></dc:title>
      </cc:Work>
    </rdf:RDF>
  </metadata>
  <g
     inkscape:label="Layer 1"
     inkscape:groupmode="layer"
     id="layer1"
     transform="translate(0,-85.333313)">
    <g
       id="g3768"
       transform="matrix(0.26458333,0,0,0.26458333,-441.86706,53.18644)">
      <path
         style="fill:#ffffff"
         inkscape:connector-curvature="0"
         d="m 2127.7,431.1 c -1,-2.8 -2.3,-6.2 16.3,-76.2 6.4,-24.1 13.1,-48 16.4,-59.7 h -45.9 v 0 h -88.4 -45.9 c 3.3,11.8 10,35.6 16.4,59.7 18.6,69.9 17.3,73.4 16.3,76.2 -2,5.4 -13.4,20.9 -21.5,31.5 h 157.9 c -8.1,-10.6 -19.5,-26.1 -21.6,-31.5 z"
         id="path3754" />
      <path
         style="fill:#ffffff"
         inkscape:connector-curvature="0"
         d="m 2149.3,530.8 h -158.1 c 5.6,13.4 19,21.1 22.9,23.1 h 112.3 c 3.9,-2 17.3,-9.7 22.9,-23.1 z"
         id="path3756" />
      <path
         style="fill:#ffffff"
         inkscape:connector-curvature="0"
         d="m 2047,240.7 c 1.6,1.1 2.6,2.9 2.6,4.9 v 1.4 c 0,0.8 -0.2,1.6 -0.5,2.3 l -14.2,34 h 70.6 l -14.2,-34 c -0.3,-0.7 -0.5,-1.5 -0.5,-2.3 v -1 c 0,-2 1,-3.8 2.6,-4.9 1.6,-1.1 3.7,-1.3 5.6,-0.5 l 42.8,17.8 v -70.6 l -42.8,17.8 c -1.8,0.8 -3.9,0.6 -5.6,-0.5 -1.6,-1.1 -2.6,-2.9 -2.6,-4.9 V 199 c 0,-0.8 0.2,-1.6 0.5,-2.3 l 14.2,-34 H 2035 l 14.2,34 c 0.9,2.2 0.4,4.8 -1.3,6.5 -1.7,1.7 -4.2,2.2 -6.5,1.3 l -41.8,-17.4 v 70.6 l 41.8,-17.4 c 1.8,-0.9 3.9,-0.6 5.6,0.4 z"
         id="path3758" />
      <path
         style="fill:#ffffff"
         inkscape:connector-curvature="0"
         d="m 2181.2,519 c -1.9,-13.8 -9.5,-28.8 -22.6,-44.5 H 1982 c -13.2,15.8 -20.8,30.7 -22.6,44.5 h 24 173.8 z"
         id="path3760" />
      <path
         style="fill:#ffffff"
         inkscape:connector-curvature="0"
         d="m 2172.7,730.1 c -26,-43.1 -58.1,-96.4 -59.9,-164.4 h -85 c -1.8,67.9 -33.9,121.3 -59.9,164.4 -15.4,25.5 -28.6,47.5 -30.5,65 -3.5,32.2 13.7,42.5 17.7,44.5 h 230.4 c 4.1,-2 21.2,-12.3 17.7,-44.5 -1.9,-17.5 -15.1,-39.5 -30.5,-65 z"
         id="path3762" />
      <rect
         style="fill:#ffffff"
         x="1959.8"
         y="851.40002"
         width="221"
         height="28.9"
         id="rect3764" />
      <path
         inkscape:connector-curvature="0"
         d="m 2182.9,724 c -25.2,-41.8 -56.4,-93.6 -58.2,-158.3 h 3.1 c 0.8,0 1.7,-0.2 2.4,-0.5 1.1,-0.5 24.8,-11.3 31.7,-34.4 h 25.7 c 1.6,0 3.1,-0.6 4.2,-1.8 1.1,-1.1 1.7,-2.7 1.7,-4.2 -0.3,-18.9 -9.6,-39.1 -27.7,-60.1 -11.6,-14.9 -24.4,-32.3 -26.8,-37.2 0.2,-9.6 17.9,-77 34.8,-136.6 0.5,-1.8 0.1,-3.7 -1,-5.2 -1.1,-1.5 -2.9,-2.4 -4.7,-2.4 h -49.8 l -11.1,-26.7 38.3,16 c 1.8,0.8 3.9,0.6 5.6,-0.5 1.6,-1.1 2.6,-2.9 2.6,-4.9 v -88.4 c 0,-2 -1,-3.8 -2.6,-4.9 -1.6,-1.1 -3.7,-1.3 -5.6,-0.5 l -38.3,16 12.6,-30.3 c 0.8,-1.8 0.6,-3.9 -0.5,-5.6 -1.1,-1.6 -2.9,-2.6 -4.9,-2.6 H 2026 c -2,0 -3.8,1 -4.9,2.6 -1.1,1.6 -1.3,3.7 -0.5,5.6 l 12,28.9 -36.7,-15.3 c -1.8,-0.8 -3.9,-0.6 -5.6,0.5 -1.6,1.1 -2.6,2.9 -2.6,4.9 v 88.4 c 0,2 1,3.8 2.6,4.9 1.6,1.1 3.7,1.3 5.6,0.5 l 37.4,-15.6 -11.3,27 h -49.8 c -1.9,0 -3.6,0.9 -4.7,2.4 -1.1,1.5 -1.5,3.4 -1,5.2 16.9,59.6 34.7,126.9 34.8,136.6 -2.3,4.9 -15.1,22.3 -26.8,37.2 -18.1,21 -27.4,41.2 -27.7,60.1 0,1.6 0.6,3.1 1.7,4.2 1.1,1.1 2.6,1.8 4.2,1.8 h 25.7 c 6.8,23.1 30.6,33.9 31.7,34.4 0.8,0.3 1.6,0.5 2.4,0.5 h 3.1 c -1.8,64.7 -33,116.5 -58.2,158.3 -16.1,26.7 -30,49.7 -32.1,69.8 -3.9,36 14.1,50.6 22.4,55.3 v 37.1 c 0,3.3 2.7,5.9 5.9,5.9 h 232.9 c 3.3,0 5.9,-2.7 5.9,-5.9 v -37.1 c 8.2,-4.7 26.3,-19.4 22.4,-55.3 -2,-20.1 -15.9,-43.1 -31.9,-69.8 z M 1999.7,257.6 V 187 l 41.8,17.4 c 2.2,0.9 4.8,0.4 6.5,-1.3 1.7,-1.7 2.2,-4.2 1.3,-6.5 l -14.2,-34 h 70.6 l -14.2,34 c -0.3,0.7 -0.5,1.5 -0.5,2.3 v 1.2 c 0,2 1,3.8 2.6,4.9 1.6,1.1 3.7,1.3 5.6,0.5 l 42.8,-17.8 v 70.6 l -42.8,-17.8 c -1.8,-0.8 -3.9,-0.6 -5.6,0.5 -1.6,1.1 -2.6,2.9 -2.6,4.9 v 1.2 c 0,0.8 0.2,1.6 0.5,2.3 l 14.2,34 H 2035 l 14.2,-34 c 0.3,-0.7 0.5,-1.5 0.5,-2.3 v -1.4 c 0,-2 -1,-3.8 -2.6,-4.9 -1.6,-1.1 -3.7,-1.3 -5.6,-0.5 z m 13.2,173.5 c 1,-2.8 2.3,-6.3 -16.3,-76.2 -6.4,-24.1 -13.1,-48 -16.4,-59.7 h 45.9 88.4 v 0 h 45.9 c -3.3,11.8 -10,35.6 -16.4,59.7 -18.6,69.9 -17.3,73.4 -16.3,76.2 2,5.4 13.4,20.9 21.5,31.5 h -157.9 c 8.1,-10.6 19.5,-26.1 21.6,-31.5 z m -53.5,87.9 c 1.9,-13.8 9.5,-28.8 22.6,-44.5 h 176.5 c 13.2,15.8 20.8,30.7 22.6,44.5 h -24 -173.8 z m 54.8,34.9 c -3.8,-2 -17.2,-9.6 -22.9,-23.1 h 158.1 c -5.6,13.3 -19,21.1 -22.9,23.1 z m 166.6,326.5 h -221 v -28.9 h 221 z m 4.7,-40.8 h -230.4 c -4,-1.9 -21.2,-12.3 -17.7,-44.5 1.9,-17.5 15.2,-39.5 30.5,-65 26,-43.1 58.1,-96.4 59.9,-164.4 h 85 c 1.8,67.9 33.9,121.3 59.9,164.4 15.4,25.5 28.6,47.5 30.5,65 3.5,32.1 -13.6,42.5 -17.7,44.5 z"
         id="path3766" />
    </g>
  </g>
</svg>
