<?xml version="1.0" encoding="UTF-8" standalone="no"?>
<svg
   xmlns:dc="http://purl.org/dc/elements/1.1/"
   xmlns:cc="http://creativecommons.org/ns#"
   xmlns:rdf="http://www.w3.org/1999/02/22-rdf-syntax-ns#"
   xmlns:svg="http://www.w3.org/2000/svg"
   xmlns="http://www.w3.org/2000/svg"
   id="svg4337"
   version="1.1"
   viewBox="0 0 211.66667 211.66667"
   height="800"
   width="800">
  <defs
     id="defs4331" />
  <metadata
     id="metadata4334">
    <rdf:RDF>
      <cc:Work
         rdf:about="">
        <dc:format>image/svg+xml</dc:format>
        <dc:type
           rdf:resource="http://purl.org/dc/dcmitype/StillImage" />
        <dc:title></dc:title>
      </cc:Work>
    </rdf:RDF>
  </metadata>
  <g
     transform="translate(0,-85.333313)"
     id="layer1">
    <g
       transform="matrix(0.26458333,0,0,0.26458333,47.956057,24.069044)"
       id="g3752">
      <rect
         id="rect3740"
         height="28.9"
         width="221"
         y="851.40002"
         x="108.2"
         style="fill:#ffffff" />
      <path
         id="path3742"
         d="m 292.4,551.4 c 0,0 0,0 0,0 -0.4,-0.8 -0.7,-1.6 -1.1,-2.4 -0.1,-0.1 -0.1,-0.2 -0.2,-0.4 -0.6,-1.3 -1.2,-2.6 -1.9,-3.9 -0.2,-0.4 -0.4,-0.8 -0.7,-1.3 -0.3,-0.6 -0.6,-1.1 -0.9,-1.7 -0.4,-0.7 -0.8,-1.4 -1.2,-2.1 -0.3,-0.5 -0.6,-1 -0.9,-1.6 -0.5,-0.9 -1.1,-1.7 -1.6,-2.6 -0.2,-0.4 -0.5,-0.7 -0.7,-1.1 -0.7,-1.1 -1.5,-2.2 -2.3,-3.4 H 147.5 c -0.8,1.1 -1.5,2.3 -2.3,3.4 -0.2,0.4 -0.5,0.7 -0.7,1.1 -0.6,0.9 -1.1,1.7 -1.6,2.6 -0.3,0.5 -0.6,1 -0.9,1.5 -0.4,0.7 -0.8,1.4 -1.2,2.2 -0.3,0.6 -0.6,1.1 -0.9,1.7 -0.2,0.4 -0.4,0.8 -0.7,1.3 -0.7,1.3 -1.3,2.6 -1.9,3.9 -0.1,0.1 -0.1,0.2 -0.2,0.4 -0.4,0.8 -0.7,1.6 -1.1,2.4 0,0 0,0 0,0 -2.8,6.6 -4.6,13 -5.4,19.1 h 167.2 c -0.8,-6.1 -2.6,-12.5 -5.4,-19.1 z"
         style="fill:#ffffff" />
      <path
         id="path3744"
         d="m 281.1,519.2 c 11.4,-14.7 17.6,-33 17.6,-51.7 0,-46.6 -37.9,-84.5 -84.5,-84.5 -46.6,0 -84.5,37.9 -84.5,84.5 0,18.7 6.2,36.9 17.6,51.7 z"
         style="fill:#ffffff" />
      <path
         id="path3746"
         d="m 159.6,621.9 h 112.1 c 4.5,-2.8 20.8,-14.1 25.3,-33.9 0.4,-1.9 0.7,-3.7 0.9,-5.6 H 130.5 c 0.2,1.9 0.5,3.8 0.9,5.6 4.5,19.8 20.8,31.1 25.3,33.9 z"
         style="fill:#ffffff" />
      <path
         id="path3748"
         d="M 324.3,751.9 C 301.6,728.7 273.5,700.1 271.9,633.8 H 165.4 c -1.6,66.2 -29.7,94.9 -52.4,118.1 -14.2,14.5 -25.4,26 -27.3,43.2 -3.5,32.2 13.7,42.5 17.7,44.5 h 230.4 c 4.1,-2 21.2,-12.3 17.7,-44.5 -1.8,-17.3 -13,-28.7 -27.2,-43.2 z"
         style="fill:#ffffff" />
      <path
         id="path3750"
         d="m 332.8,743.6 c -23,-23.5 -49,-50 -49.1,-115.6 8.2,-6.3 20.5,-18.5 24.8,-37.1 3.2,-13.9 1.4,-28.8 -5.4,-44.5 0,0 0,-0.1 0,-0.1 -0.5,-1.1 -1,-2.2 -1.5,-3.3 -0.1,-0.2 -0.2,-0.3 -0.2,-0.5 -1.4,-2.9 -2.9,-5.8 -4.7,-8.7 -0.4,-0.7 -0.8,-1.4 -1.2,-2.1 -0.4,-0.6 -0.8,-1.3 -1.2,-1.9 -0.5,-0.8 -1.1,-1.7 -1.6,-2.5 -0.3,-0.5 -0.7,-1 -1,-1.6 -0.1,-0.2 -0.2,-0.3 -0.3,-0.5 12.4,-16.6 19.2,-36.9 19.2,-57.8 0,-53.1 -43.2,-96.4 -96.4,-96.4 -53.2,0 -96.4,43.2 -96.4,96.4 0,20.8 6.8,41.2 19.2,57.8 -0.1,0.2 -0.2,0.3 -0.3,0.5 -0.3,0.5 -0.6,1 -1,1.4 -0.6,0.9 -1.2,1.8 -1.7,2.6 -0.4,0.6 -0.8,1.2 -1.1,1.8 -0.4,0.7 -0.9,1.4 -1.3,2.2 -1.7,2.9 -3.2,5.8 -4.6,8.6 -0.1,0.2 -0.2,0.3 -0.3,0.5 -0.5,1.1 -1,2.2 -1.5,3.3 0,0 0,0.1 -0.1,0.1 -6.8,15.6 -8.6,30.5 -5.4,44.5 6.6,28.2 31.4,41.7 32.4,42.2 0.4,0.2 0.8,0.4 1.3,0.5 -1.5,61.5 -26.7,87.2 -49,110 -14.4,15 -28.1,29.1 -30.4,50.4 -3.9,36 14.1,50.6 22.4,55.3 v 37.1 c 0,3.3 2.7,5.9 5.9,5.9 h 232.9 c 3.3,0 5.9,-2.7 5.9,-5.9 v -37.1 c 8.2,-4.7 26.3,-19.4 22.4,-55.3 -2.4,-21.3 -16.2,-35.4 -30.7,-50.2 z M 129.7,467.5 c 0,-46.6 37.9,-84.5 84.5,-84.5 46.6,0 84.5,37.9 84.5,84.5 0,18.7 -6.2,36.9 -17.6,51.7 H 147.3 c -11.4,-14.7 -17.6,-33 -17.6,-51.7 z m 6.3,83.9 c 0,0 0,0 0,0 0.3,-0.8 0.7,-1.6 1.1,-2.4 0.1,-0.1 0.1,-0.2 0.2,-0.4 0.6,-1.3 1.2,-2.6 1.9,-3.9 0.2,-0.4 0.4,-0.8 0.7,-1.3 0.3,-0.6 0.6,-1.1 0.9,-1.7 0.4,-0.7 0.8,-1.4 1.2,-2.2 0.3,-0.5 0.6,-1 0.9,-1.5 0.5,-0.9 1.1,-1.7 1.6,-2.6 0.2,-0.4 0.5,-0.7 0.7,-1.1 0.7,-1.1 1.5,-2.2 2.3,-3.4 h 133.4 c 0.8,1.1 1.5,2.3 2.3,3.4 0.2,0.4 0.5,0.7 0.7,1.1 0.6,0.9 1.1,1.7 1.6,2.6 0.3,0.5 0.6,1.1 0.9,1.6 0.4,0.7 0.8,1.4 1.2,2.1 0.3,0.6 0.6,1.1 0.9,1.7 0.2,0.4 0.4,0.8 0.7,1.3 0.7,1.3 1.3,2.6 1.9,3.9 0.1,0.1 0.1,0.2 0.2,0.4 0.4,0.8 0.7,1.6 1.1,2.4 0,0 0,0 0,0 2.8,6.6 4.6,13 5.4,19.1 H 130.6 c 0.8,-6.1 2.6,-12.5 5.4,-19.1 z m -4.6,36.7 c -0.4,-1.9 -0.7,-3.7 -0.9,-5.6 h 167.4 c -0.2,1.9 -0.5,3.8 -0.9,5.6 -4.5,19.8 -20.8,31.1 -25.3,33.9 h -112.1 -2.9 c -4.5,-2.9 -20.8,-14.1 -25.3,-33.9 z m 197.8,292.3 h -221 v -28.9 h 221 z m 4.7,-40.8 H 103.5 c -4,-1.9 -21.2,-12.3 -17.7,-44.5 1.9,-17.3 13.1,-28.7 27.3,-43.2 22.7,-23.2 50.8,-51.8 52.4,-118.1 H 272 c 1.6,66.2 29.7,94.9 52.4,118.1 14.2,14.5 25.4,26 27.3,43.2 3.4,32.1 -13.7,42.5 -17.8,44.5 z" />
    </g>
  </g>
</svg>
